<?xml version="1.0" standalone="no"?>
<!DOCTYPE svg PUBLIC "-//W3C//DTD SVG 20010904//EN"
 "http://www.w3.org/TR/2001/REC-SVG-20010904/DTD/svg10.dtd">
<svg version="1.0" xmlns="http://www.w3.org/2000/svg"
 width="364.000000pt" height="364.000000pt" viewBox="0 0 364.000000 364.000000"
 preserveAspectRatio="xMidYMid meet">
<metadata>
Created by potrace 1.11, written by Peter Selinger 2001-2013
</metadata>
<g transform="translate(0.000000,364.000000) scale(0.100000,-0.100000)"
fill="#000000" stroke="none">
<path d="M662 3099 l-592 -539 872 -2 873 -3 305 -592 c168 -326 308 -595 311
-598 3 -3 142 265 309 595 l303 600 124 0 123 0 0 -840 0 -840 -95 0 -95 0 -1
683 0 682 -328 -655 -329 -655 -330 660 -331 660 0 -688 -1 -688 -92 3 -93 3
-3 743 -2 742 -355 0 -355 0 0 -745 0 -745 -95 0 -95 0 -2 743 -3 742 -312 3
-313 2 0 -572 1 -573 307 -417 308 -417 114 -75 115 -74 340 -110 c296 -95
352 -110 432 -115 51 -4 96 -8 101 -9 4 -2 305 116 668 261 l659 264 93 111
c90 107 99 122 238 406 l144 295 -3 605 -2 604 -210 98 c-115 54 -211 101
-214 104 -3 3 21 57 52 121 32 63 57 117 55 118 -2 2 -451 146 -998 320 -547
174 -997 318 -1000 320 -3 1 -272 -240 -598 -536z"/>
</g>
</svg>
